<?xml version="1.0" encoding="utf-8" standalone="no"?>
<!DOCTYPE svg PUBLIC "-//W3C//DTD SVG 1.1//EN"
  "http://www.w3.org/Graphics/SVG/1.1/DTD/svg11.dtd">
<!-- Created with matplotlib (https://matplotlib.org/) -->
<svg height="142.56pt" version="1.1" viewBox="0 0 588.96 142.56" width="588.96pt" xmlns="http://www.w3.org/2000/svg" xmlns:xlink="http://www.w3.org/1999/xlink">
 <metadata>
  <rdf:RDF xmlns:cc="http://creativecommons.org/ns#" xmlns:dc="http://purl.org/dc/elements/1.1/" xmlns:rdf="http://www.w3.org/1999/02/22-rdf-syntax-ns#">
   <cc:Work>
    <dc:type rdf:resource="http://purl.org/dc/dcmitype/StillImage"/>
    <dc:date>2021-11-28T10:13:24.031682</dc:date>
    <dc:format>image/svg+xml</dc:format>
    <dc:creator>
     <cc:Agent>
      <dc:title>Matplotlib v3.3.3, https://matplotlib.org/</dc:title>
     </cc:Agent>
    </dc:creator>
   </cc:Work>
  </rdf:RDF>
 </metadata>
 <defs>
  <style type="text/css">*{stroke-linecap:butt;stroke-linejoin:round;}</style>
 </defs>
 <g id="figure_1">
  <g id="patch_1">
   <path d="M 0 142.56 
L 588.96 142.56 
L 588.96 0 
L 0 0 
z
" style="fill:#ffffff;"/>
  </g>
  <g id="axes_1">
   <g id="patch_2">
    <path d="M 73.62 126.8784 
L 530.064 126.8784 
L 530.064 17.1072 
L 73.62 17.1072 
z
" style="fill:#ffffff;"/>
   </g>
   <g id="PathCollection_1">
    <defs>
     <path d="M 0 3 
C 0.795609 3 1.55874 2.683901 2.12132 2.12132 
C 2.683901 1.55874 3 0.795609 3 -0 
C 3 -0.795609 2.683901 -1.55874 2.12132 -2.12132 
C 1.55874 -2.683901 0.795609 -3 0 -3 
C -0.795609 -3 -1.55874 -2.683901 -2.12132 -2.12132 
C -2.683901 -1.55874 -3 -0.795609 -3 0 
C -3 0.795609 -2.683901 1.55874 -2.12132 2.12132 
C -1.55874 2.683901 -0.795609 3 0 3 
z
" id="C0_0_1977146d8b"/>
    </defs>
    <g clip-path="url(#p1c443176f8)">
     <use style="stroke:#000000;" x="128.39328" xlink:href="#C0_0_1977146d8b" y="71.9928"/>
    </g>
    <g clip-path="url(#p1c443176f8)">
     <use style="stroke:#000000;" x="80.46666" xlink:href="#C0_0_1977146d8b" y="71.9928"/>
    </g>
    <g clip-path="url(#p1c443176f8)">
     <use style="stroke:#000000;" x="87.31332" xlink:href="#C0_0_1977146d8b" y="71.9928"/>
    </g>
    <g clip-path="url(#p1c443176f8)">
     <use style="stroke:#000000;" x="101.00664" xlink:href="#C0_0_1977146d8b" y="71.9928"/>
    </g>
    <g clip-path="url(#p1c443176f8)">
     <use style="stroke:#000000;" x="183.16656" xlink:href="#C0_0_1977146d8b" y="71.9928"/>
    </g>
    <g clip-path="url(#p1c443176f8)">
     <use style="stroke:#000000;" x="292.71312" xlink:href="#C0_0_1977146d8b" y="71.9928"/>
    </g>
    <g clip-path="url(#p1c443176f8)">
     <use style="stroke:#000000;" x="511.80624" xlink:href="#C0_0_1977146d8b" y="71.9928"/>
    </g>
   </g>
   <g id="matplotlib.axis_1">
    <g id="xtick_1">
     <g id="line2d_1">
      <defs>
       <path d="M 0 0 
L 0 3.5 
" id="me2adb2eb90" style="stroke:#000000;stroke-width:0.8;"/>
      </defs>
      <g>
       <use style="stroke:#000000;stroke-width:0.8;" x="73.62" xlink:href="#me2adb2eb90" y="71.9928"/>
      </g>
     </g>
     <g id="text_1">
      <!-- $\mathdefault{0}$ -->
      <g transform="translate(71.129332 85.911298)scale(0.1 -0.1)">
       <defs>
        <path d="M 42 31.640625 
C 42 37.75 41.90625 48.125 37.703125 56.109375 
C 34 63.109375 28.09375 65.59375 22.90625 65.59375 
C 18.09375 65.59375 12 63.40625 8.203125 56.203125 
C 4.203125 48.71875 3.796875 39.4375 3.796875 31.640625 
C 3.796875 25.953125 3.90625 17.28125 7 9.671875 
C 11.296875 -0.609375 19 -2 22.90625 -2 
C 27.5 -2 34.5 -0.109375 38.59375 9.375 
C 41.59375 16.28125 42 24.359375 42 31.640625 
z
M 22.90625 -0.40625 
C 16.5 -0.40625 12.703125 5.078125 11.296875 12.6875 
C 10.203125 18.5625 10.203125 27.15625 10.203125 32.75 
C 10.203125 40.4375 10.203125 46.828125 11.5 52.921875 
C 13.40625 61.390625 19 64 22.90625 64 
C 27 64 32.296875 61.296875 34.203125 53.125 
C 35.5 47.4375 35.59375 40.734375 35.59375 32.75 
C 35.59375 26.25 35.59375 18.265625 34.40625 12.375 
C 32.296875 1.484375 26.40625 -0.40625 22.90625 -0.40625 
z
" id="CMR17-48"/>
       </defs>
       <use transform="scale(0.996264)" xlink:href="#CMR17-48"/>
      </g>
     </g>
    </g>
    <g id="xtick_2">
     <g id="line2d_2">
      <g>
       <use style="stroke:#000000;stroke-width:0.8;" x="164.9088" xlink:href="#me2adb2eb90" y="71.9928"/>
      </g>
     </g>
     <g id="text_2">
      <!-- $\mathdefault{2}$ -->
      <g transform="translate(162.418132 85.911298)scale(0.1 -0.1)">
       <defs>
        <path d="M 41.703125 15.453125 
L 39.90625 15.453125 
C 38.90625 8.375 38.09375 7.171875 37.703125 6.5625 
C 37.203125 5.765625 30 5.765625 28.59375 5.765625 
L 9.40625 5.765625 
C 13 9.671875 20 16.75 28.5 24.953125 
C 34.59375 30.734375 41.703125 37.53125 41.703125 47.421875 
C 41.703125 59.21875 32.296875 66 21.796875 66 
C 10.796875 66 4.09375 56.3125 4.09375 47.34375 
C 4.09375 43.4375 7 42.9375 8.203125 42.9375 
C 9.203125 42.9375 12.203125 43.546875 12.203125 47.03125 
C 12.203125 50.109375 9.59375 51 8.203125 51 
C 7.59375 51 7 50.90625 6.59375 50.703125 
C 8.5 59.21875 14.296875 63.40625 20.40625 63.40625 
C 29.09375 63.40625 34.796875 56.515625 34.796875 47.421875 
C 34.796875 38.734375 29.703125 31.25 24 24.75 
L 4.09375 2.28125 
L 4.09375 0 
L 39.296875 0 
z
" id="CMR17-50"/>
       </defs>
       <use transform="scale(0.996264)" xlink:href="#CMR17-50"/>
      </g>
     </g>
    </g>
    <g id="xtick_3">
     <g id="line2d_3">
      <g>
       <use style="stroke:#000000;stroke-width:0.8;" x="256.1976" xlink:href="#me2adb2eb90" y="71.9928"/>
      </g>
     </g>
     <g id="text_3">
      <!-- $\mathdefault{4}$ -->
      <g transform="translate(253.706932 85.911298)scale(0.1 -0.1)">
       <defs>
        <path d="M 33.59375 64.40625 
C 33.59375 66.5 33.5 66.5 31.703125 66.5 
L 2 19.59375 
L 2 17 
L 27.796875 17 
L 27.796875 7.140625 
C 27.796875 3.5 27.59375 2.5 20.59375 2.5 
L 18.703125 2.5 
L 18.703125 0 
C 21.90625 0 27.296875 0 30.703125 0 
C 34.09375 0 39.5 0 42.703125 0 
L 42.703125 2.5 
L 40.796875 2.5 
C 33.796875 2.5 33.59375 3.5 33.59375 7.140625 
L 33.59375 17 
L 43.796875 17 
L 43.796875 19.59375 
L 33.59375 19.59375 
z
M 28.09375 57.859375 
L 28.09375 19.59375 
L 4 19.59375 
z
" id="CMR17-52"/>
       </defs>
       <use transform="scale(0.996264)" xlink:href="#CMR17-52"/>
      </g>
     </g>
    </g>
    <g id="xtick_4">
     <g id="line2d_4">
      <g>
       <use style="stroke:#000000;stroke-width:0.8;" x="347.4864" xlink:href="#me2adb2eb90" y="71.9928"/>
      </g>
     </g>
     <g id="text_4">
      <!-- $\mathdefault{6}$ -->
      <g transform="translate(344.995732 85.911298)scale(0.1 -0.1)">
       <defs>
        <path d="M 10.59375 34 
C 10.59375 57.65625 21.796875 63 28.296875 63 
C 30.40625 63 35.5 62.640625 37.5 59 
C 35.90625 59 32.90625 59 32.90625 55.515625 
C 32.90625 52.828125 35.09375 51.921875 36.5 51.921875 
C 37.40625 51.921875 40.09375 52.3125 40.09375 55.625 
C 40.09375 61.78125 35.09375 65.296875 28.203125 65.296875 
C 16.296875 65.296875 3.796875 52.96875 3.796875 31 
C 3.796875 3.953125 15.09375 -2 23.09375 -2 
C 32.796875 -2 42 6.671875 42 20.046875 
C 42 32.515625 33.90625 41.59375 23.703125 41.59375 
C 17.59375 41.59375 13.09375 37.609375 10.59375 30.625 
z
M 23.09375 0.390625 
C 10.796875 0.390625 10.796875 18.75 10.796875 22.4375 
C 10.796875 29.625 14.203125 40 23.5 40 
C 25.203125 40 30.09375 40 33.40625 33.125 
C 35.203125 29.21875 35.203125 25.140625 35.203125 20.140625 
C 35.203125 14.75 35.203125 10.78125 33.09375 6.78125 
C 30.90625 2.671875 27.703125 0.390625 23.09375 0.390625 
z
" id="CMR17-54"/>
       </defs>
       <use transform="scale(0.996264)" xlink:href="#CMR17-54"/>
      </g>
     </g>
    </g>
    <g id="xtick_5">
     <g id="line2d_5">
      <g>
       <use style="stroke:#000000;stroke-width:0.8;" x="438.7752" xlink:href="#me2adb2eb90" y="71.9928"/>
      </g>
     </g>
     <g id="text_5">
      <!-- $\mathdefault{8}$ -->
      <g transform="translate(436.284532 85.911298)scale(0.1 -0.1)">
       <defs>
        <path d="M 27.203125 35.375 
C 33.5 38.546875 39.90625 43.328125 39.90625 50.984375 
C 39.90625 60.015625 31.09375 65.296875 23 65.296875 
C 13.90625 65.296875 5.90625 58.734375 5.90625 49.6875 
C 5.90625 47.203125 6.5 42.921875 10.40625 39.140625 
C 11.40625 38.15625 15.59375 35.171875 18.296875 33.28125 
C 13.796875 30.984375 3.296875 25.53125 3.296875 14.59375 
C 3.296875 4.359375 13.09375 -2 22.796875 -2 
C 33.5 -2 42.5 5.65625 42.5 15.78125 
C 42.5 24.84375 36.40625 29.015625 32.40625 31.703125 
z
M 14.09375 44.09375 
C 13.296875 44.59375 9.296875 47.671875 9.296875 52.359375 
C 9.296875 58.421875 15.59375 63 22.796875 63 
C 30.703125 63 36.5 57.4375 36.5 50.96875 
C 36.5 41.703125 26.09375 36.421875 25.59375 36.421875 
C 25.5 36.421875 25.40625 36.421875 24.59375 37.03125 
z
M 32.5 23.734375 
C 34 22.640625 38.796875 19.375 38.796875 13.296875 
C 38.796875 5.953125 31.40625 0.390625 23 0.390625 
C 13.90625 0.390625 7 6.84375 7 14.6875 
C 7 22.546875 13.09375 29.09375 20 32.1875 
z
" id="CMR17-56"/>
       </defs>
       <use transform="scale(0.996264)" xlink:href="#CMR17-56"/>
      </g>
     </g>
    </g>
    <g id="xtick_6">
     <g id="line2d_6">
      <g>
       <use style="stroke:#000000;stroke-width:0.8;" x="530.064" xlink:href="#me2adb2eb90" y="71.9928"/>
      </g>
     </g>
     <g id="text_6">
      <!-- $\mathdefault{10}$ -->
      <g transform="translate(525.082665 85.911298)scale(0.1 -0.1)">
       <defs>
        <path d="M 26.59375 63.40625 
C 26.59375 65.5 26.5 65.5 25.09375 65.5 
C 21.203125 61.1875 15.296875 59.796875 9.703125 59.796875 
C 9.40625 59.796875 8.90625 59.796875 8.796875 59.5 
C 8.703125 59.296875 8.703125 59.09375 8.703125 57 
C 11.796875 57 17 57.59375 21 59.984375 
L 21 7.203125 
C 21 3.6875 20.796875 2.5 12.203125 2.5 
L 9.203125 2.5 
L 9.203125 0 
C 14 0 19 0 23.796875 0 
C 28.59375 0 33.59375 0 38.40625 0 
L 38.40625 2.5 
L 35.40625 2.5 
C 26.796875 2.5 26.59375 3.59375 26.59375 7.15625 
z
" id="CMR17-49"/>
       </defs>
       <use transform="scale(0.996264)" xlink:href="#CMR17-49"/>
       <use transform="translate(45.690477 0)scale(0.996264)" xlink:href="#CMR17-48"/>
      </g>
     </g>
    </g>
   </g>
   <g id="matplotlib.axis_2"/>
   <g id="patch_3">
    <path d="M 73.62 126.8784 
L 73.62 17.1072 
" style="fill:none;"/>
   </g>
   <g id="patch_4">
    <path d="M 530.064 126.8784 
L 530.064 17.1072 
" style="fill:none;"/>
   </g>
   <g id="patch_5">
    <path d="M 73.62 71.9928 
L 530.064 71.9928 
" style="fill:none;stroke:#000000;stroke-linecap:square;stroke-linejoin:miter;stroke-width:0.8;"/>
   </g>
   <g id="patch_6">
    <path d="M 73.62 17.1072 
L 530.064 17.1072 
" style="fill:none;"/>
   </g>
   <g id="patch_7">
    <path d="M 544.945144 71.9928 
Q 539.06549 71.9928 532.067803 71.9928 
" style="fill:none;stroke:#000000;stroke-linecap:round;"/>
    <path d="M 540.145144 69.5928 
L 544.945144 71.9928 
L 540.145144 74.3928 
" style="fill:none;stroke:#000000;stroke-linecap:round;"/>
   </g>
   <g id="text_7">
    <!-- $x$ -->
    <g transform="translate(550.064 74.981592)scale(0.12 -0.12)">
     <defs>
      <path d="M 47.40625 40.71875 
C 44.203125 40.109375 43 37.71875 43 35.828125 
C 43 33.421875 44.90625 32.625 46.296875 32.625 
C 49.296875 32.625 51.40625 35.21875 51.40625 37.921875 
C 51.40625 42.109375 46.59375 44 42.40625 44 
C 36.296875 44 32.90625 38.015625 32 36.125 
C 29.703125 44 23.5 44 21.703125 44 
C 11.5 44 6.09375 30.9375 6.09375 28.734375 
C 6.09375 28.34375 6.5 27.84375 7.203125 27.84375 
C 8 27.84375 8.203125 28.4375 8.40625 28.84375 
C 11.796875 39.921875 18.5 42.015625 21.40625 42.015625 
C 25.90625 42.015625 26.796875 37.8125 26.796875 35.421875 
C 26.796875 33.234375 26.203125 30.9375 25 26.140625 
L 21.59375 12.46875 
C 20.09375 6.484375 17.203125 1 11.90625 1 
C 11.40625 1 8.90625 1 6.796875 2.296875 
C 10.40625 3 11.203125 5.984375 11.203125 7.1875 
C 11.203125 9.1875 9.703125 10.375 7.796875 10.375 
C 5.40625 10.375 2.796875 8.28125 2.796875 5.09375 
C 2.796875 0.890625 7.5 -1 11.796875 -1 
C 16.59375 -1 20 2.796875 22.09375 6.890625 
C 23.703125 1 28.703125 -1 32.40625 -1 
C 42.59375 -1 48 12.078125 48 14.265625 
C 48 14.765625 47.59375 15.171875 47 15.171875 
C 46.09375 15.171875 46 14.671875 45.703125 13.875 
C 43 5.09375 37.203125 1 32.703125 1 
C 29.203125 1 27.296875 3.59375 27.296875 7.6875 
C 27.296875 9.875 27.703125 11.46875 29.296875 18.0625 
L 32.796875 31.625 
C 34.296875 37.625 37.703125 42.015625 42.296875 42.015625 
C 42.5 42.015625 45.296875 42.015625 47.40625 40.71875 
z
" id="CMMI12-120"/>
     </defs>
     <use transform="scale(0.996264)" xlink:href="#CMMI12-120"/>
    </g>
   </g>
   <g id="text_8">
    <!-- $x$ -->
    <g transform="translate(131.913896 67.87638)scale(0.12 -0.12)">
     <use transform="scale(0.996264)" xlink:href="#CMMI12-120"/>
    </g>
   </g>
   <g id="text_9">
    <!-- $x'$ -->
    <g transform="translate(82.838805 67.87638)scale(0.12 -0.12)">
     <defs>
      <path d="M 25.296875 47.5 
C 25.796875 48.703125 26.203125 49.59375 26.203125 50.59375 
C 26.203125 53.5 23.59375 55.90625 20.5 55.90625 
C 17.703125 55.90625 15.90625 54 15.203125 51.40625 
L 3.296875 7.703125 
C 3.296875 7.5 2.90625 6.40625 2.90625 6.296875 
C 2.90625 5.203125 5.5 4.5 6.296875 4.5 
C 6.90625 4.5 7 4.796875 7.59375 6.09375 
z
" id="CMSY10-48"/>
     </defs>
     <use transform="scale(0.996264)" xlink:href="#CMMI12-120"/>
     <use transform="translate(55.43406 36.153639)scale(0.697382)" xlink:href="#CMSY10-48"/>
    </g>
   </g>
   <g id="text_10">
    <!-- $x'$ -->
    <g transform="translate(89.685465 67.87638)scale(0.12 -0.12)">
     <use transform="scale(0.996264)" xlink:href="#CMMI12-120"/>
     <use transform="translate(55.43406 36.153639)scale(0.697382)" xlink:href="#CMSY10-48"/>
    </g>
   </g>
   <g id="text_11">
    <!-- $x'$ -->
    <g transform="translate(103.378785 67.87638)scale(0.12 -0.12)">
     <use transform="scale(0.996264)" xlink:href="#CMMI12-120"/>
     <use transform="translate(55.43406 36.153639)scale(0.697382)" xlink:href="#CMSY10-48"/>
    </g>
   </g>
   <g id="text_12">
    <!-- $x'$ -->
    <g transform="translate(185.538705 67.87638)scale(0.12 -0.12)">
     <use transform="scale(0.996264)" xlink:href="#CMMI12-120"/>
     <use transform="translate(55.43406 36.153639)scale(0.697382)" xlink:href="#CMSY10-48"/>
    </g>
   </g>
   <g id="text_13">
    <!-- $x'$ -->
    <g transform="translate(295.085265 67.87638)scale(0.12 -0.12)">
     <use transform="scale(0.996264)" xlink:href="#CMMI12-120"/>
     <use transform="translate(55.43406 36.153639)scale(0.697382)" xlink:href="#CMSY10-48"/>
    </g>
   </g>
   <g id="text_14">
    <!-- $x'$ -->
    <g transform="translate(514.178385 67.87638)scale(0.12 -0.12)">
     <use transform="scale(0.996264)" xlink:href="#CMMI12-120"/>
     <use transform="translate(55.43406 36.153639)scale(0.697382)" xlink:href="#CMSY10-48"/>
    </g>
   </g>
  </g>
 </g>
 <defs>
  <clipPath id="p1c443176f8">
   <rect height="109.7712" width="456.444" x="73.62" y="17.1072"/>
  </clipPath>
 </defs>
</svg>
