<?xml version="1.0" encoding="utf-8" standalone="no"?>
<!DOCTYPE svg PUBLIC "-//W3C//DTD SVG 1.1//EN"
  "http://www.w3.org/Graphics/SVG/1.1/DTD/svg11.dtd">
<svg xmlns:xlink="http://www.w3.org/1999/xlink" width="460.8pt" height="345.6pt" viewBox="0 0 460.8 345.6" xmlns="http://www.w3.org/2000/svg" version="1.1">
 <metadata>
  <rdf:RDF xmlns:dc="http://purl.org/dc/elements/1.1/" xmlns:cc="http://creativecommons.org/ns#" xmlns:rdf="http://www.w3.org/1999/02/22-rdf-syntax-ns#">
   <cc:Work>
    <dc:type rdf:resource="http://purl.org/dc/dcmitype/StillImage"/>
    <dc:date>2024-09-06T08:24:21.833940</dc:date>
    <dc:format>image/svg+xml</dc:format>
    <dc:creator>
     <cc:Agent>
      <dc:title>Matplotlib v3.9.2, https://matplotlib.org/</dc:title>
     </cc:Agent>
    </dc:creator>
   </cc:Work>
  </rdf:RDF>
 </metadata>
 <defs>
  <style type="text/css">*{stroke-linejoin: round; stroke-linecap: butt}</style>
 </defs>
 <g id="figure_1">
  <g id="patch_1">
   <path d="M 0 345.6 
L 460.8 345.6 
L 460.8 0 
L 0 0 
z
" style="fill: #ffffff"/>
  </g>
  <g id="axes_1">
   <g id="patch_2">
    <path d="M 57.6 307.584 
L 414.72 307.584 
L 414.72 41.472 
L 57.6 41.472 
z
" style="fill: #ffffff"/>
   </g>
   <g id="patch_3">
    <path d="M 176.64 218.88 
L 176.64 130.176 
L 295.68 130.176 
L 295.68 218.88 
z
" clip-path="url(#p66cd22555a)" style="fill: #1f77b4; opacity: 0.2"/>
   </g>
   <g id="PathCollection_1">
    <defs>
     <path id="C0_0_4cb271d3f4" d="M 0 3 
C 0.795609 3 1.55874 2.683901 2.12132 2.12132 
C 2.683901 1.55874 3 0.795609 3 -0 
C 3 -0.795609 2.683901 -1.55874 2.12132 -2.12132 
C 1.55874 -2.683901 0.795609 -3 0 -3 
C -0.795609 -3 -1.55874 -2.683901 -2.12132 -2.12132 
C -2.683901 -1.55874 -3 -0.795609 -3 0 
C -3 0.795609 -2.683901 1.55874 -2.12132 2.12132 
C -1.55874 2.683901 -0.795609 3 0 3 
z
"/>
    </defs>
    <g clip-path="url(#p66cd22555a)">
     <use xlink:href="#C0_0_4cb271d3f4" x="206.4" y="152.352" style="stroke: #000000"/>
    </g>
    <g clip-path="url(#p66cd22555a)">
     <use xlink:href="#C0_0_4cb271d3f4" x="325.44" y="152.352" style="stroke: #000000"/>
    </g>
    <g clip-path="url(#p66cd22555a)">
     <use xlink:href="#C0_0_4cb271d3f4" x="206.4" y="63.648" style="stroke: #000000"/>
    </g>
    <g clip-path="url(#p66cd22555a)">
     <use xlink:href="#C0_0_4cb271d3f4" x="325.44" y="63.648" style="stroke: #000000"/>
    </g>
    <g clip-path="url(#p66cd22555a)">
     <use xlink:href="#C0_0_4cb271d3f4" x="87.36" y="152.352" style="stroke: #000000"/>
    </g>
    <g clip-path="url(#p66cd22555a)">
     <use xlink:href="#C0_0_4cb271d3f4" x="87.36" y="63.648" style="stroke: #000000"/>
    </g>
    <g clip-path="url(#p66cd22555a)">
     <use xlink:href="#C0_0_4cb271d3f4" x="87.36" y="241.056" style="stroke: #000000"/>
    </g>
    <g clip-path="url(#p66cd22555a)">
     <use xlink:href="#C0_0_4cb271d3f4" x="206.4" y="241.056" style="stroke: #000000"/>
    </g>
    <g clip-path="url(#p66cd22555a)">
     <use xlink:href="#C0_0_4cb271d3f4" x="325.44" y="241.056" style="stroke: #000000"/>
    </g>
   </g>
   <g id="matplotlib.axis_1">
    <g id="xtick_1">
     <g id="line2d_1">
      <defs>
       <path id="m37b90ced62" d="M 0 0 
L 0 3.5 
" style="stroke: #000000; stroke-width: 0.8"/>
      </defs>
      <g>
       <use xlink:href="#m37b90ced62" x="57.6" y="218.88" style="stroke: #000000; stroke-width: 0.8"/>
      </g>
     </g>
     <g id="text_1">
      <!-- $\mathdefault{−1.0}$ -->
      <g transform="translate(47.360589 232.798498) scale(0.1 -0.1)">
       <defs>
        <path id="CMSY10-0" d="M 4218 1472 
C 4326 1472 4442 1472 4442 1600 
C 4442 1728 4326 1728 4218 1728 
L 755 1728 
C 646 1728 531 1728 531 1600 
C 531 1472 646 1472 755 1472 
L 4218 1472 
z
" transform="scale(0.015625)"/>
        <path id="CMR17-31" d="M 1702 4058 
C 1702 4192 1696 4192 1606 4192 
C 1357 3916 979 3827 621 3827 
C 602 3827 570 3827 563 3808 
C 557 3795 557 3782 557 3648 
C 755 3648 1088 3686 1344 3839 
L 1344 461 
C 1344 236 1331 160 781 160 
L 589 160 
L 589 0 
C 896 0 1216 0 1523 0 
C 1830 0 2150 0 2458 0 
L 2458 160 
L 2266 160 
C 1715 160 1702 230 1702 458 
L 1702 4058 
z
" transform="scale(0.015625)"/>
        <path id="CMMI12-3a" d="M 1178 307 
C 1178 492 1024 619 870 619 
C 685 619 557 466 557 313 
C 557 128 710 0 864 0 
C 1050 0 1178 153 1178 307 
z
" transform="scale(0.015625)"/>
        <path id="CMR17-30" d="M 2688 2025 
C 2688 2416 2682 3080 2413 3591 
C 2176 4039 1798 4198 1466 4198 
C 1158 4198 768 4058 525 3597 
C 269 3118 243 2524 243 2025 
C 243 1661 250 1106 448 619 
C 723 -39 1216 -128 1466 -128 
C 1760 -128 2208 -7 2470 600 
C 2662 1042 2688 1559 2688 2025 
z
M 1466 -26 
C 1056 -26 813 325 723 812 
C 653 1188 653 1738 653 2096 
C 653 2588 653 2997 736 3387 
C 858 3929 1216 4096 1466 4096 
C 1728 4096 2067 3923 2189 3400 
C 2272 3036 2278 2607 2278 2096 
C 2278 1680 2278 1169 2202 792 
C 2067 95 1690 -26 1466 -26 
z
" transform="scale(0.015625)"/>
       </defs>
       <use xlink:href="#CMSY10-0" transform="scale(0.996264)"/>
       <use xlink:href="#CMR17-31" transform="translate(77.487468 0) scale(0.996264)"/>
       <use xlink:href="#CMMI12-3a" transform="translate(123.177945 0) scale(0.996264)"/>
       <use xlink:href="#CMR17-30" transform="translate(150.275122 0) scale(0.996264)"/>
      </g>
     </g>
    </g>
    <g id="xtick_2">
     <g id="line2d_2">
      <g>
       <use xlink:href="#m37b90ced62" x="117.12" y="218.88" style="stroke: #000000; stroke-width: 0.8"/>
      </g>
     </g>
     <g id="text_2">
      <!-- $\mathdefault{−0.5}$ -->
      <g transform="translate(106.880589 232.798498) scale(0.1 -0.1)">
       <defs>
        <path id="CMR17-35" d="M 730 3692 
C 794 3666 1056 3584 1325 3584 
C 1920 3584 2246 3911 2432 4100 
C 2432 4157 2432 4192 2394 4192 
C 2387 4192 2374 4192 2323 4163 
C 2099 4058 1837 3973 1517 3973 
C 1325 3973 1037 3999 723 4139 
C 653 4171 640 4171 634 4171 
C 602 4171 595 4164 595 4037 
L 595 2203 
C 595 2089 595 2057 659 2057 
C 691 2057 704 2070 736 2114 
C 941 2401 1222 2522 1542 2522 
C 1766 2522 2246 2382 2246 1289 
C 2246 1085 2246 715 2054 421 
C 1894 159 1645 25 1370 25 
C 947 25 518 320 403 814 
C 429 807 480 795 506 795 
C 589 795 749 840 749 1038 
C 749 1210 627 1280 506 1280 
C 358 1280 262 1190 262 1011 
C 262 454 704 -128 1382 -128 
C 2042 -128 2669 440 2669 1264 
C 2669 2030 2170 2624 1549 2624 
C 1222 2624 947 2503 730 2274 
L 730 3692 
z
" transform="scale(0.015625)"/>
       </defs>
       <use xlink:href="#CMSY10-0" transform="scale(0.996264)"/>
       <use xlink:href="#CMR17-30" transform="translate(77.487468 0) scale(0.996264)"/>
       <use xlink:href="#CMMI12-3a" transform="translate(123.177945 0) scale(0.996264)"/>
       <use xlink:href="#CMR17-35" transform="translate(150.275122 0) scale(0.996264)"/>
      </g>
     </g>
    </g>
    <g id="xtick_3">
     <g id="line2d_3">
      <g>
       <use xlink:href="#m37b90ced62" x="176.64" y="218.88" style="stroke: #000000; stroke-width: 0.8"/>
      </g>
     </g>
     <g id="text_3">
      <!-- $\mathdefault{0.0}$ -->
      <g transform="translate(170.274961 232.798498) scale(0.1 -0.1)">
       <use xlink:href="#CMR17-30" transform="scale(0.996264)"/>
       <use xlink:href="#CMMI12-3a" transform="translate(45.690477 0) scale(0.996264)"/>
       <use xlink:href="#CMR17-30" transform="translate(72.787654 0) scale(0.996264)"/>
      </g>
     </g>
    </g>
    <g id="xtick_4">
     <g id="line2d_4">
      <g>
       <use xlink:href="#m37b90ced62" x="236.16" y="218.88" style="stroke: #000000; stroke-width: 0.8"/>
      </g>
     </g>
     <g id="text_4">
      <!-- $\mathdefault{0.5}$ -->
      <g transform="translate(229.794961 232.798498) scale(0.1 -0.1)">
       <use xlink:href="#CMR17-30" transform="scale(0.996264)"/>
       <use xlink:href="#CMMI12-3a" transform="translate(45.690477 0) scale(0.996264)"/>
       <use xlink:href="#CMR17-35" transform="translate(72.787654 0) scale(0.996264)"/>
      </g>
     </g>
    </g>
    <g id="xtick_5">
     <g id="line2d_5">
      <g>
       <use xlink:href="#m37b90ced62" x="295.68" y="218.88" style="stroke: #000000; stroke-width: 0.8"/>
      </g>
     </g>
     <g id="text_5">
      <!-- $\mathdefault{1.0}$ -->
      <g transform="translate(289.314961 232.798498) scale(0.1 -0.1)">
       <use xlink:href="#CMR17-31" transform="scale(0.996264)"/>
       <use xlink:href="#CMMI12-3a" transform="translate(45.690477 0) scale(0.996264)"/>
       <use xlink:href="#CMR17-30" transform="translate(72.787654 0) scale(0.996264)"/>
      </g>
     </g>
    </g>
    <g id="xtick_6">
     <g id="line2d_6">
      <g>
       <use xlink:href="#m37b90ced62" x="355.2" y="218.88" style="stroke: #000000; stroke-width: 0.8"/>
      </g>
     </g>
     <g id="text_6">
      <!-- $\mathdefault{1.5}$ -->
      <g transform="translate(348.834961 232.798498) scale(0.1 -0.1)">
       <use xlink:href="#CMR17-31" transform="scale(0.996264)"/>
       <use xlink:href="#CMMI12-3a" transform="translate(45.690477 0) scale(0.996264)"/>
       <use xlink:href="#CMR17-35" transform="translate(72.787654 0) scale(0.996264)"/>
      </g>
     </g>
    </g>
    <g id="xtick_7">
     <g id="line2d_7">
      <g>
       <use xlink:href="#m37b90ced62" x="414.72" y="218.88" style="stroke: #000000; stroke-width: 0.8"/>
      </g>
     </g>
     <g id="text_7">
      <!-- $\mathdefault{2.0}$ -->
      <g transform="translate(408.354961 232.798498) scale(0.1 -0.1)">
       <defs>
        <path id="CMR17-32" d="M 2669 989 
L 2554 989 
C 2490 536 2438 459 2413 420 
C 2381 369 1920 369 1830 369 
L 602 369 
C 832 619 1280 1072 1824 1597 
C 2214 1967 2669 2402 2669 3035 
C 2669 3790 2067 4224 1395 4224 
C 691 4224 262 3604 262 3030 
C 262 2780 448 2748 525 2748 
C 589 2748 781 2787 781 3010 
C 781 3207 614 3264 525 3264 
C 486 3264 448 3258 422 3245 
C 544 3790 915 4058 1306 4058 
C 1862 4058 2227 3617 2227 3035 
C 2227 2479 1901 2000 1536 1584 
L 262 146 
L 262 0 
L 2515 0 
L 2669 989 
z
" transform="scale(0.015625)"/>
       </defs>
       <use xlink:href="#CMR17-32" transform="scale(0.996264)"/>
       <use xlink:href="#CMMI12-3a" transform="translate(45.690477 0) scale(0.996264)"/>
       <use xlink:href="#CMR17-30" transform="translate(72.787654 0) scale(0.996264)"/>
      </g>
     </g>
    </g>
   </g>
   <g id="matplotlib.axis_2">
    <g id="ytick_1">
     <g id="line2d_8">
      <defs>
       <path id="m7a2a46dc87" d="M 0 0 
L -3.5 0 
" style="stroke: #000000; stroke-width: 0.8"/>
      </defs>
      <g>
       <use xlink:href="#m7a2a46dc87" x="176.64" y="307.584" style="stroke: #000000; stroke-width: 0.8"/>
      </g>
     </g>
     <g id="text_8">
      <!-- $\mathdefault{−1.0}$ -->
      <g transform="translate(149.161177 311.043249) scale(0.1 -0.1)">
       <use xlink:href="#CMSY10-0" transform="scale(0.996264)"/>
       <use xlink:href="#CMR17-31" transform="translate(77.487468 0) scale(0.996264)"/>
       <use xlink:href="#CMMI12-3a" transform="translate(123.177945 0) scale(0.996264)"/>
       <use xlink:href="#CMR17-30" transform="translate(150.275122 0) scale(0.996264)"/>
      </g>
     </g>
    </g>
    <g id="ytick_2">
     <g id="line2d_9">
      <g>
       <use xlink:href="#m7a2a46dc87" x="176.64" y="263.232" style="stroke: #000000; stroke-width: 0.8"/>
      </g>
     </g>
     <g id="text_9">
      <!-- $\mathdefault{−0.5}$ -->
      <g transform="translate(149.161177 266.691249) scale(0.1 -0.1)">
       <use xlink:href="#CMSY10-0" transform="scale(0.996264)"/>
       <use xlink:href="#CMR17-30" transform="translate(77.487468 0) scale(0.996264)"/>
       <use xlink:href="#CMMI12-3a" transform="translate(123.177945 0) scale(0.996264)"/>
       <use xlink:href="#CMR17-35" transform="translate(150.275122 0) scale(0.996264)"/>
      </g>
     </g>
    </g>
    <g id="ytick_3">
     <g id="line2d_10">
      <g>
       <use xlink:href="#m7a2a46dc87" x="176.64" y="218.88" style="stroke: #000000; stroke-width: 0.8"/>
      </g>
     </g>
     <g id="text_10">
      <!-- $\mathdefault{0.0}$ -->
      <g transform="translate(156.909921 222.339249) scale(0.1 -0.1)">
       <use xlink:href="#CMR17-30" transform="scale(0.996264)"/>
       <use xlink:href="#CMMI12-3a" transform="translate(45.690477 0) scale(0.996264)"/>
       <use xlink:href="#CMR17-30" transform="translate(72.787654 0) scale(0.996264)"/>
      </g>
     </g>
    </g>
    <g id="ytick_4">
     <g id="line2d_11">
      <g>
       <use xlink:href="#m7a2a46dc87" x="176.64" y="174.528" style="stroke: #000000; stroke-width: 0.8"/>
      </g>
     </g>
     <g id="text_11">
      <!-- $\mathdefault{0.5}$ -->
      <g transform="translate(156.909921 177.987249) scale(0.1 -0.1)">
       <use xlink:href="#CMR17-30" transform="scale(0.996264)"/>
       <use xlink:href="#CMMI12-3a" transform="translate(45.690477 0) scale(0.996264)"/>
       <use xlink:href="#CMR17-35" transform="translate(72.787654 0) scale(0.996264)"/>
      </g>
     </g>
    </g>
    <g id="ytick_5">
     <g id="line2d_12">
      <g>
       <use xlink:href="#m7a2a46dc87" x="176.64" y="130.176" style="stroke: #000000; stroke-width: 0.8"/>
      </g>
     </g>
     <g id="text_12">
      <!-- $\mathdefault{1.0}$ -->
      <g transform="translate(156.909921 133.635249) scale(0.1 -0.1)">
       <use xlink:href="#CMR17-31" transform="scale(0.996264)"/>
       <use xlink:href="#CMMI12-3a" transform="translate(45.690477 0) scale(0.996264)"/>
       <use xlink:href="#CMR17-30" transform="translate(72.787654 0) scale(0.996264)"/>
      </g>
     </g>
    </g>
    <g id="ytick_6">
     <g id="line2d_13">
      <g>
       <use xlink:href="#m7a2a46dc87" x="176.64" y="85.824" style="stroke: #000000; stroke-width: 0.8"/>
      </g>
     </g>
     <g id="text_13">
      <!-- $\mathdefault{1.5}$ -->
      <g transform="translate(156.909921 89.283249) scale(0.1 -0.1)">
       <use xlink:href="#CMR17-31" transform="scale(0.996264)"/>
       <use xlink:href="#CMMI12-3a" transform="translate(45.690477 0) scale(0.996264)"/>
       <use xlink:href="#CMR17-35" transform="translate(72.787654 0) scale(0.996264)"/>
      </g>
     </g>
    </g>
    <g id="ytick_7">
     <g id="line2d_14">
      <g>
       <use xlink:href="#m7a2a46dc87" x="176.64" y="41.472" style="stroke: #000000; stroke-width: 0.8"/>
      </g>
     </g>
     <g id="text_14">
      <!-- $\mathdefault{2.0}$ -->
      <g transform="translate(156.909921 44.931249) scale(0.1 -0.1)">
       <use xlink:href="#CMR17-32" transform="scale(0.996264)"/>
       <use xlink:href="#CMMI12-3a" transform="translate(45.690477 0) scale(0.996264)"/>
       <use xlink:href="#CMR17-30" transform="translate(72.787654 0) scale(0.996264)"/>
      </g>
     </g>
    </g>
   </g>
   <g id="patch_4">
    <path d="M 176.64 307.584 
L 176.64 41.472 
" style="fill: none; stroke: #000000; stroke-width: 0.8; stroke-linejoin: miter; stroke-linecap: square"/>
   </g>
   <g id="patch_5">
    <path d="M 414.72 307.584 
L 414.72 41.472 
" style="fill: none"/>
   </g>
   <g id="patch_6">
    <path d="M 57.6 218.88 
L 414.72 218.88 
" style="fill: none; stroke: #000000; stroke-width: 0.8; stroke-linejoin: miter; stroke-linecap: square"/>
   </g>
   <g id="patch_7">
    <path d="M 57.6 41.472 
L 414.72 41.472 
" style="fill: none"/>
   </g>
   <g id="patch_8">
    <path d="M 429.601818 218.88 
Q 423.72187 218.88 416.723888 218.88 
" style="fill: none; stroke: #000000; stroke-linecap: round"/>
    <path d="M 424.801818 216.48 
L 429.601818 218.88 
L 424.801818 221.28 
" style="fill: none; stroke: #000000; stroke-linecap: round"/>
   </g>
   <g id="text_15">
    <!-- $g_1$ -->
    <g transform="translate(434.72 221.868792) scale(0.12 -0.12)">
     <defs>
      <path id="CMMI12-67" d="M 2163 811 
C 2138 709 2125 683 2042 588 
C 1779 249 1510 128 1312 128 
C 1101 128 902 294 902 734 
C 902 1073 1094 1788 1235 2076 
C 1421 2433 1709 2689 1978 2689 
C 2400 2689 2483 2165 2483 2127 
L 2464 2037 
L 2163 811 
z
M 2560 2395 
C 2477 2580 2298 2816 1978 2816 
C 1280 2816 486 1941 486 990 
C 486 326 890 0 1299 0 
C 1638 0 1939 268 2054 396 
L 1914 -171 
C 1824 -516 1786 -674 1555 -894 
C 1293 -1152 1050 -1152 909 -1152 
C 717 -1152 557 -1139 397 -1089 
C 602 -1033 653 -858 653 -789 
C 653 -689 576 -588 435 -588 
C 282 -588 115 -714 115 -922 
C 115 -1180 378 -1280 922 -1280 
C 1747 -1280 2176 -753 2259 -410 
L 2970 2435 
C 2989 2511 2989 2524 2989 2536 
C 2989 2625 2918 2695 2822 2695 
C 2669 2695 2579 2567 2560 2395 
z
" transform="scale(0.015625)"/>
     </defs>
     <use xlink:href="#CMMI12-67" transform="scale(0.996264)"/>
     <use xlink:href="#CMR17-31" transform="translate(46.710897 -14.943915) scale(0.697382)"/>
    </g>
   </g>
   <g id="patch_9">
    <path d="M 176.64 26.590144 
Q 176.64 32.470109 176.64 39.468108 
" style="fill: none; stroke: #000000; stroke-linecap: round"/>
    <path d="M 174.24 31.390144 
L 176.64 26.590144 
L 179.04 31.390144 
" style="fill: none; stroke: #000000; stroke-linecap: round"/>
   </g>
   <g id="text_16">
    <!-- $g_2$ -->
    <g transform="translate(171.720255 19.147404) scale(0.12 -0.12)">
     <use xlink:href="#CMMI12-67" transform="scale(0.996264)"/>
     <use xlink:href="#CMR17-32" transform="translate(46.710897 -14.943915) scale(0.697382)"/>
    </g>
   </g>
   <g id="text_17">
    <!-- $A$ -->
    <g transform="translate(210.940332 145.6992) scale(0.12 -0.12)">
     <defs>
      <path id="CMMI12-41" d="M 1088 691 
C 864 314 646 186 339 186 
C 269 180 218 180 218 58 
C 218 24 250 0 294 0 
C 410 0 698 0 813 0 
C 998 0 1203 0 1382 0 
C 1421 0 1498 0 1498 122 
C 1498 180 1446 186 1408 186 
C 1261 186 1139 236 1139 388 
C 1139 476 1178 546 1261 685 
L 1747 1479 
L 3379 1479 
C 3386 1423 3386 1373 3392 1316 
C 3411 1152 3488 495 3488 376 
C 3488 186 3162 186 3059 186 
C 2989 186 2918 186 2918 70 
C 2918 0 2976 0 3014 0 
C 3123 0 3251 0 3360 0 
L 3725 0 
C 4115 0 4397 0 4403 0 
C 4448 0 4518 0 4518 122 
C 4518 186 4461 186 4365 186 
C 4013 186 4006 244 3987 434 
L 3597 4404 
C 3584 4531 3558 4544 3488 4544 
C 3424 4544 3386 4531 3328 4435 
L 1088 691 
z
M 1856 1664 
L 3142 3819 
L 3360 1664 
L 1856 1664 
z
" transform="scale(0.015625)"/>
     </defs>
     <use xlink:href="#CMMI12-41" transform="scale(0.996264)"/>
    </g>
   </g>
   <g id="text_18">
    <!-- $A'$ -->
    <g transform="translate(328.83186 145.6992) scale(0.12 -0.12)">
     <defs>
      <path id="CMSY10-30" d="M 1619 3040 
C 1651 3117 1677 3174 1677 3238 
C 1677 3424 1510 3578 1312 3578 
C 1133 3578 1018 3456 973 3290 
L 211 493 
C 211 480 186 410 186 403 
C 186 333 352 288 403 288 
C 442 288 448 307 486 390 
L 1619 3040 
z
" transform="scale(0.015625)"/>
     </defs>
     <use xlink:href="#CMMI12-41" transform="scale(0.996264)"/>
     <use xlink:href="#CMSY10-30" transform="translate(73.127885 36.153639) scale(0.697382)"/>
    </g>
   </g>
   <g id="text_19">
    <!-- $A'$ -->
    <g transform="translate(209.79186 56.9952) scale(0.12 -0.12)">
     <use xlink:href="#CMMI12-41" transform="scale(0.996264)"/>
     <use xlink:href="#CMSY10-30" transform="translate(73.127885 36.153639) scale(0.697382)"/>
    </g>
   </g>
   <g id="text_20">
    <!-- $A'$ -->
    <g transform="translate(328.83186 56.9952) scale(0.12 -0.12)">
     <use xlink:href="#CMMI12-41" transform="scale(0.996264)"/>
     <use xlink:href="#CMSY10-30" transform="translate(73.127885 36.153639) scale(0.697382)"/>
    </g>
   </g>
   <g id="text_21">
    <!-- $A'$ -->
    <g transform="translate(90.75186 145.6992) scale(0.12 -0.12)">
     <use xlink:href="#CMMI12-41" transform="scale(0.996264)"/>
     <use xlink:href="#CMSY10-30" transform="translate(73.127885 36.153639) scale(0.697382)"/>
    </g>
   </g>
   <g id="text_22">
    <!-- $A'$ -->
    <g transform="translate(90.75186 56.9952) scale(0.12 -0.12)">
     <use xlink:href="#CMMI12-41" transform="scale(0.996264)"/>
     <use xlink:href="#CMSY10-30" transform="translate(73.127885 36.153639) scale(0.697382)"/>
    </g>
   </g>
   <g id="text_23">
    <!-- $A'$ -->
    <g transform="translate(90.75186 234.4032) scale(0.12 -0.12)">
     <use xlink:href="#CMMI12-41" transform="scale(0.996264)"/>
     <use xlink:href="#CMSY10-30" transform="translate(73.127885 36.153639) scale(0.697382)"/>
    </g>
   </g>
   <g id="text_24">
    <!-- $A'$ -->
    <g transform="translate(209.79186 234.4032) scale(0.12 -0.12)">
     <use xlink:href="#CMMI12-41" transform="scale(0.996264)"/>
     <use xlink:href="#CMSY10-30" transform="translate(73.127885 36.153639) scale(0.697382)"/>
    </g>
   </g>
   <g id="text_25">
    <!-- $A'$ -->
    <g transform="translate(328.83186 234.4032) scale(0.12 -0.12)">
     <use xlink:href="#CMMI12-41" transform="scale(0.996264)"/>
     <use xlink:href="#CMSY10-30" transform="translate(73.127885 36.153639) scale(0.697382)"/>
    </g>
   </g>
   <g id="patch_10">
    <path d="M 176.64 216.879504 
Q 176.64 174.52661 176.64 132.173716 
" style="fill: none; stroke: #0000ff; stroke-linecap: round"/>
   </g>
   <g id="patch_11">
    <path d="M 176.64 216.879504 
Q 176.64 196.702828 176.64 177.644185 
" style="fill: none; stroke: #0000ff; stroke-linecap: round"/>
    <path d="M 174.64 181.644185 
L 176.64 177.644185 
L 178.64 181.644185 
" style="fill: none; stroke: #0000ff; stroke-linecap: round"/>
   </g>
   <g id="patch_12">
    <path d="M 295.68 216.879504 
Q 295.68 174.52661 295.68 132.173716 
" style="fill: none; stroke: #0000ff; stroke-linecap: round"/>
   </g>
   <g id="patch_13">
    <path d="M 295.68 216.879504 
Q 295.68 196.702828 295.68 177.644185 
" style="fill: none; stroke: #0000ff; stroke-linecap: round"/>
    <path d="M 293.68 181.644185 
L 295.68 177.644185 
L 297.68 181.644185 
" style="fill: none; stroke: #0000ff; stroke-linecap: round"/>
   </g>
   <g id="patch_14">
    <path d="M 178.64168 218.88 
Q 236.162542 218.88 293.683405 218.88 
" style="fill: none; stroke: #0000ff; stroke-linecap: round"/>
   </g>
   <g id="patch_15">
    <path d="M 178.64168 218.88 
Q 206.402063 218.88 233.044412 218.88 
" style="fill: none; stroke: #0000ff; stroke-linecap: round"/>
    <path d="M 229.044412 216.88 
L 233.044412 218.88 
L 229.044412 220.88 
" style="fill: none; stroke: #0000ff; stroke-linecap: round"/>
   </g>
   <g id="patch_16">
    <path d="M 178.64168 130.176 
Q 236.162542 130.176 293.683405 130.176 
" style="fill: none; stroke: #0000ff; stroke-linecap: round"/>
   </g>
   <g id="patch_17">
    <path d="M 178.64168 130.176 
Q 206.402063 130.176 233.044412 130.176 
" style="fill: none; stroke: #0000ff; stroke-linecap: round"/>
    <path d="M 229.044412 128.176 
L 233.044412 130.176 
L 229.044412 132.176 
" style="fill: none; stroke: #0000ff; stroke-linecap: round"/>
   </g>
   <g id="patch_18">
    <path d="M 295.68 216.879504 
Q 295.68 174.52661 295.68 132.173716 
" style="fill: none; stroke: #0000ff; stroke-linecap: round"/>
   </g>
   <g id="patch_19">
    <path d="M 295.68 216.879504 
Q 295.68 196.702828 295.68 177.644185 
" style="fill: none; stroke: #0000ff; stroke-linecap: round"/>
    <path d="M 293.68 181.644185 
L 295.68 177.644185 
L 297.68 181.644185 
" style="fill: none; stroke: #0000ff; stroke-linecap: round"/>
   </g>
   <g id="patch_20">
    <path d="M 414.72 216.879504 
Q 414.72 174.52661 414.72 132.173716 
" style="fill: none; stroke: #0000ff; stroke-linecap: round"/>
   </g>
   <g id="patch_21">
    <path d="M 414.72 216.879504 
Q 414.72 196.702828 414.72 177.644185 
" style="fill: none; stroke: #0000ff; stroke-linecap: round"/>
    <path d="M 412.72 181.644185 
L 414.72 177.644185 
L 416.72 181.644185 
" style="fill: none; stroke: #0000ff; stroke-linecap: round"/>
   </g>
   <g id="patch_22">
    <path d="M 297.68168 218.88 
Q 355.202542 218.88 412.723405 218.88 
" style="fill: none; stroke: #0000ff; stroke-linecap: round"/>
   </g>
   <g id="patch_23">
    <path d="M 297.68168 218.88 
Q 325.442063 218.88 352.084412 218.88 
" style="fill: none; stroke: #0000ff; stroke-linecap: round"/>
    <path d="M 348.084412 216.88 
L 352.084412 218.88 
L 348.084412 220.88 
" style="fill: none; stroke: #0000ff; stroke-linecap: round"/>
   </g>
   <g id="patch_24">
    <path d="M 297.68168 130.176 
Q 355.202542 130.176 412.723405 130.176 
" style="fill: none; stroke: #0000ff; stroke-linecap: round"/>
   </g>
   <g id="patch_25">
    <path d="M 297.68168 130.176 
Q 325.442063 130.176 352.084412 130.176 
" style="fill: none; stroke: #0000ff; stroke-linecap: round"/>
    <path d="M 348.084412 128.176 
L 352.084412 130.176 
L 348.084412 132.176 
" style="fill: none; stroke: #0000ff; stroke-linecap: round"/>
   </g>
   <g id="patch_26">
    <path d="M 176.64 128.175504 
Q 176.64 85.82261 176.64 43.469716 
" style="fill: none; stroke: #0000ff; stroke-linecap: round"/>
   </g>
   <g id="patch_27">
    <path d="M 176.64 128.175504 
Q 176.64 107.998828 176.64 88.940185 
" style="fill: none; stroke: #0000ff; stroke-linecap: round"/>
    <path d="M 174.64 92.940185 
L 176.64 88.940185 
L 178.64 92.940185 
" style="fill: none; stroke: #0000ff; stroke-linecap: round"/>
   </g>
   <g id="patch_28">
    <path d="M 295.68 128.175504 
Q 295.68 85.82261 295.68 43.469716 
" style="fill: none; stroke: #0000ff; stroke-linecap: round"/>
   </g>
   <g id="patch_29">
    <path d="M 295.68 128.175504 
Q 295.68 107.998828 295.68 88.940185 
" style="fill: none; stroke: #0000ff; stroke-linecap: round"/>
    <path d="M 293.68 92.940185 
L 295.68 88.940185 
L 297.68 92.940185 
" style="fill: none; stroke: #0000ff; stroke-linecap: round"/>
   </g>
   <g id="patch_30">
    <path d="M 178.64168 130.176 
Q 236.162542 130.176 293.683405 130.176 
" style="fill: none; stroke: #0000ff; stroke-linecap: round"/>
   </g>
   <g id="patch_31">
    <path d="M 178.64168 130.176 
Q 206.402063 130.176 233.044412 130.176 
" style="fill: none; stroke: #0000ff; stroke-linecap: round"/>
    <path d="M 229.044412 128.176 
L 233.044412 130.176 
L 229.044412 132.176 
" style="fill: none; stroke: #0000ff; stroke-linecap: round"/>
   </g>
   <g id="patch_32">
    <path d="M 178.64168 41.472 
Q 236.162542 41.472 293.683405 41.472 
" style="fill: none; stroke: #0000ff; stroke-linecap: round"/>
   </g>
   <g id="patch_33">
    <path d="M 178.64168 41.472 
Q 206.402063 41.472 233.044412 41.472 
" style="fill: none; stroke: #0000ff; stroke-linecap: round"/>
    <path d="M 229.044412 39.472 
L 233.044412 41.472 
L 229.044412 43.472 
" style="fill: none; stroke: #0000ff; stroke-linecap: round"/>
   </g>
   <g id="patch_34">
    <path d="M 295.68 128.175504 
Q 295.68 85.82261 295.68 43.469716 
" style="fill: none; stroke: #0000ff; stroke-linecap: round"/>
   </g>
   <g id="patch_35">
    <path d="M 295.68 128.175504 
Q 295.68 107.998828 295.68 88.940185 
" style="fill: none; stroke: #0000ff; stroke-linecap: round"/>
    <path d="M 293.68 92.940185 
L 295.68 88.940185 
L 297.68 92.940185 
" style="fill: none; stroke: #0000ff; stroke-linecap: round"/>
   </g>
   <g id="patch_36">
    <path d="M 414.72 128.175504 
Q 414.72 85.82261 414.72 43.469716 
" style="fill: none; stroke: #0000ff; stroke-linecap: round"/>
   </g>
   <g id="patch_37">
    <path d="M 414.72 128.175504 
Q 414.72 107.998828 414.72 88.940185 
" style="fill: none; stroke: #0000ff; stroke-linecap: round"/>
    <path d="M 412.72 92.940185 
L 414.72 88.940185 
L 416.72 92.940185 
" style="fill: none; stroke: #0000ff; stroke-linecap: round"/>
   </g>
   <g id="patch_38">
    <path d="M 297.68168 130.176 
Q 355.202542 130.176 412.723405 130.176 
" style="fill: none; stroke: #0000ff; stroke-linecap: round"/>
   </g>
   <g id="patch_39">
    <path d="M 297.68168 130.176 
Q 325.442063 130.176 352.084412 130.176 
" style="fill: none; stroke: #0000ff; stroke-linecap: round"/>
    <path d="M 348.084412 128.176 
L 352.084412 130.176 
L 348.084412 132.176 
" style="fill: none; stroke: #0000ff; stroke-linecap: round"/>
   </g>
   <g id="patch_40">
    <path d="M 297.68168 41.472 
Q 355.202542 41.472 412.723405 41.472 
" style="fill: none; stroke: #0000ff; stroke-linecap: round"/>
   </g>
   <g id="patch_41">
    <path d="M 297.68168 41.472 
Q 325.442063 41.472 352.084412 41.472 
" style="fill: none; stroke: #0000ff; stroke-linecap: round"/>
    <path d="M 348.084412 39.472 
L 352.084412 41.472 
L 348.084412 43.472 
" style="fill: none; stroke: #0000ff; stroke-linecap: round"/>
   </g>
   <g id="patch_42">
    <path d="M 57.6 216.879504 
Q 57.6 174.52661 57.6 132.173716 
" style="fill: none; stroke: #0000ff; stroke-linecap: round"/>
   </g>
   <g id="patch_43">
    <path d="M 57.6 216.879504 
Q 57.6 196.702828 57.6 177.644185 
" style="fill: none; stroke: #0000ff; stroke-linecap: round"/>
    <path d="M 55.6 181.644185 
L 57.6 177.644185 
L 59.6 181.644185 
" style="fill: none; stroke: #0000ff; stroke-linecap: round"/>
   </g>
   <g id="patch_44">
    <path d="M 176.64 216.879504 
Q 176.64 174.52661 176.64 132.173716 
" style="fill: none; stroke: #0000ff; stroke-linecap: round"/>
   </g>
   <g id="patch_45">
    <path d="M 176.64 216.879504 
Q 176.64 196.702828 176.64 177.644185 
" style="fill: none; stroke: #0000ff; stroke-linecap: round"/>
    <path d="M 174.64 181.644185 
L 176.64 177.644185 
L 178.64 181.644185 
" style="fill: none; stroke: #0000ff; stroke-linecap: round"/>
   </g>
   <g id="patch_46">
    <path d="M 59.60168 218.88 
Q 117.122542 218.88 174.643405 218.88 
" style="fill: none; stroke: #0000ff; stroke-linecap: round"/>
   </g>
   <g id="patch_47">
    <path d="M 59.60168 218.88 
Q 87.362063 218.88 114.004412 218.88 
" style="fill: none; stroke: #0000ff; stroke-linecap: round"/>
    <path d="M 110.004412 216.88 
L 114.004412 218.88 
L 110.004412 220.88 
" style="fill: none; stroke: #0000ff; stroke-linecap: round"/>
   </g>
   <g id="patch_48">
    <path d="M 59.60168 130.176 
Q 117.122542 130.176 174.643405 130.176 
" style="fill: none; stroke: #0000ff; stroke-linecap: round"/>
   </g>
   <g id="patch_49">
    <path d="M 59.60168 130.176 
Q 87.362063 130.176 114.004412 130.176 
" style="fill: none; stroke: #0000ff; stroke-linecap: round"/>
    <path d="M 110.004412 128.176 
L 114.004412 130.176 
L 110.004412 132.176 
" style="fill: none; stroke: #0000ff; stroke-linecap: round"/>
   </g>
   <g id="patch_50">
    <path d="M 57.6 128.175504 
Q 57.6 85.82261 57.6 43.469716 
" style="fill: none; stroke: #0000ff; stroke-linecap: round"/>
   </g>
   <g id="patch_51">
    <path d="M 57.6 128.175504 
Q 57.6 107.998828 57.6 88.940185 
" style="fill: none; stroke: #0000ff; stroke-linecap: round"/>
    <path d="M 55.6 92.940185 
L 57.6 88.940185 
L 59.6 92.940185 
" style="fill: none; stroke: #0000ff; stroke-linecap: round"/>
   </g>
   <g id="patch_52">
    <path d="M 176.64 128.175504 
Q 176.64 85.82261 176.64 43.469716 
" style="fill: none; stroke: #0000ff; stroke-linecap: round"/>
   </g>
   <g id="patch_53">
    <path d="M 176.64 128.175504 
Q 176.64 107.998828 176.64 88.940185 
" style="fill: none; stroke: #0000ff; stroke-linecap: round"/>
    <path d="M 174.64 92.940185 
L 176.64 88.940185 
L 178.64 92.940185 
" style="fill: none; stroke: #0000ff; stroke-linecap: round"/>
   </g>
   <g id="patch_54">
    <path d="M 59.60168 130.176 
Q 117.122542 130.176 174.643405 130.176 
" style="fill: none; stroke: #0000ff; stroke-linecap: round"/>
   </g>
   <g id="patch_55">
    <path d="M 59.60168 130.176 
Q 87.362063 130.176 114.004412 130.176 
" style="fill: none; stroke: #0000ff; stroke-linecap: round"/>
    <path d="M 110.004412 128.176 
L 114.004412 130.176 
L 110.004412 132.176 
" style="fill: none; stroke: #0000ff; stroke-linecap: round"/>
   </g>
   <g id="patch_56">
    <path d="M 59.60168 41.472 
Q 117.122542 41.472 174.643405 41.472 
" style="fill: none; stroke: #0000ff; stroke-linecap: round"/>
   </g>
   <g id="patch_57">
    <path d="M 59.60168 41.472 
Q 87.362063 41.472 114.004412 41.472 
" style="fill: none; stroke: #0000ff; stroke-linecap: round"/>
    <path d="M 110.004412 39.472 
L 114.004412 41.472 
L 110.004412 43.472 
" style="fill: none; stroke: #0000ff; stroke-linecap: round"/>
   </g>
   <g id="patch_58">
    <path d="M 57.6 305.583504 
Q 57.6 263.23061 57.6 220.877716 
" style="fill: none; stroke: #0000ff; stroke-linecap: round"/>
   </g>
   <g id="patch_59">
    <path d="M 57.6 305.583504 
Q 57.6 285.406828 57.6 266.348185 
" style="fill: none; stroke: #0000ff; stroke-linecap: round"/>
    <path d="M 55.6 270.348185 
L 57.6 266.348185 
L 59.6 270.348185 
" style="fill: none; stroke: #0000ff; stroke-linecap: round"/>
   </g>
   <g id="patch_60">
    <path d="M 176.64 305.583504 
Q 176.64 263.23061 176.64 220.877716 
" style="fill: none; stroke: #0000ff; stroke-linecap: round"/>
   </g>
   <g id="patch_61">
    <path d="M 176.64 305.583504 
Q 176.64 285.406828 176.64 266.348185 
" style="fill: none; stroke: #0000ff; stroke-linecap: round"/>
    <path d="M 174.64 270.348185 
L 176.64 266.348185 
L 178.64 270.348185 
" style="fill: none; stroke: #0000ff; stroke-linecap: round"/>
   </g>
   <g id="patch_62">
    <path d="M 59.60168 307.584 
Q 117.122542 307.584 174.643405 307.584 
" style="fill: none; stroke: #0000ff; stroke-linecap: round"/>
   </g>
   <g id="patch_63">
    <path d="M 59.60168 307.584 
Q 87.362063 307.584 114.004412 307.584 
" style="fill: none; stroke: #0000ff; stroke-linecap: round"/>
    <path d="M 110.004412 305.584 
L 114.004412 307.584 
L 110.004412 309.584 
" style="fill: none; stroke: #0000ff; stroke-linecap: round"/>
   </g>
   <g id="patch_64">
    <path d="M 59.60168 218.88 
Q 117.122542 218.88 174.643405 218.88 
" style="fill: none; stroke: #0000ff; stroke-linecap: round"/>
   </g>
   <g id="patch_65">
    <path d="M 59.60168 218.88 
Q 87.362063 218.88 114.004412 218.88 
" style="fill: none; stroke: #0000ff; stroke-linecap: round"/>
    <path d="M 110.004412 216.88 
L 114.004412 218.88 
L 110.004412 220.88 
" style="fill: none; stroke: #0000ff; stroke-linecap: round"/>
   </g>
   <g id="patch_66">
    <path d="M 176.64 305.583504 
Q 176.64 263.23061 176.64 220.877716 
" style="fill: none; stroke: #0000ff; stroke-linecap: round"/>
   </g>
   <g id="patch_67">
    <path d="M 176.64 305.583504 
Q 176.64 285.406828 176.64 266.348185 
" style="fill: none; stroke: #0000ff; stroke-linecap: round"/>
    <path d="M 174.64 270.348185 
L 176.64 266.348185 
L 178.64 270.348185 
" style="fill: none; stroke: #0000ff; stroke-linecap: round"/>
   </g>
   <g id="patch_68">
    <path d="M 295.68 305.583504 
Q 295.68 263.23061 295.68 220.877716 
" style="fill: none; stroke: #0000ff; stroke-linecap: round"/>
   </g>
   <g id="patch_69">
    <path d="M 295.68 305.583504 
Q 295.68 285.406828 295.68 266.348185 
" style="fill: none; stroke: #0000ff; stroke-linecap: round"/>
    <path d="M 293.68 270.348185 
L 295.68 266.348185 
L 297.68 270.348185 
" style="fill: none; stroke: #0000ff; stroke-linecap: round"/>
   </g>
   <g id="patch_70">
    <path d="M 178.64168 307.584 
Q 236.162542 307.584 293.683405 307.584 
" style="fill: none; stroke: #0000ff; stroke-linecap: round"/>
   </g>
   <g id="patch_71">
    <path d="M 178.64168 307.584 
Q 206.402063 307.584 233.044412 307.584 
" style="fill: none; stroke: #0000ff; stroke-linecap: round"/>
    <path d="M 229.044412 305.584 
L 233.044412 307.584 
L 229.044412 309.584 
" style="fill: none; stroke: #0000ff; stroke-linecap: round"/>
   </g>
   <g id="patch_72">
    <path d="M 178.64168 218.88 
Q 236.162542 218.88 293.683405 218.88 
" style="fill: none; stroke: #0000ff; stroke-linecap: round"/>
   </g>
   <g id="patch_73">
    <path d="M 178.64168 218.88 
Q 206.402063 218.88 233.044412 218.88 
" style="fill: none; stroke: #0000ff; stroke-linecap: round"/>
    <path d="M 229.044412 216.88 
L 233.044412 218.88 
L 229.044412 220.88 
" style="fill: none; stroke: #0000ff; stroke-linecap: round"/>
   </g>
   <g id="patch_74">
    <path d="M 295.68 305.583504 
Q 295.68 263.23061 295.68 220.877716 
" style="fill: none; stroke: #0000ff; stroke-linecap: round"/>
   </g>
   <g id="patch_75">
    <path d="M 295.68 305.583504 
Q 295.68 285.406828 295.68 266.348185 
" style="fill: none; stroke: #0000ff; stroke-linecap: round"/>
    <path d="M 293.68 270.348185 
L 295.68 266.348185 
L 297.68 270.348185 
" style="fill: none; stroke: #0000ff; stroke-linecap: round"/>
   </g>
   <g id="patch_76">
    <path d="M 414.72 305.583504 
Q 414.72 263.23061 414.72 220.877716 
" style="fill: none; stroke: #0000ff; stroke-linecap: round"/>
   </g>
   <g id="patch_77">
    <path d="M 414.72 305.583504 
Q 414.72 285.406828 414.72 266.348185 
" style="fill: none; stroke: #0000ff; stroke-linecap: round"/>
    <path d="M 412.72 270.348185 
L 414.72 266.348185 
L 416.72 270.348185 
" style="fill: none; stroke: #0000ff; stroke-linecap: round"/>
   </g>
   <g id="patch_78">
    <path d="M 297.68168 307.584 
Q 355.202542 307.584 412.723405 307.584 
" style="fill: none; stroke: #0000ff; stroke-linecap: round"/>
   </g>
   <g id="patch_79">
    <path d="M 297.68168 307.584 
Q 325.442063 307.584 352.084412 307.584 
" style="fill: none; stroke: #0000ff; stroke-linecap: round"/>
    <path d="M 348.084412 305.584 
L 352.084412 307.584 
L 348.084412 309.584 
" style="fill: none; stroke: #0000ff; stroke-linecap: round"/>
   </g>
   <g id="patch_80">
    <path d="M 297.68168 218.88 
Q 355.202542 218.88 412.723405 218.88 
" style="fill: none; stroke: #0000ff; stroke-linecap: round"/>
   </g>
   <g id="patch_81">
    <path d="M 297.68168 218.88 
Q 325.442063 218.88 352.084412 218.88 
" style="fill: none; stroke: #0000ff; stroke-linecap: round"/>
    <path d="M 348.084412 216.88 
L 352.084412 218.88 
L 348.084412 220.88 
" style="fill: none; stroke: #0000ff; stroke-linecap: round"/>
   </g>
  </g>
 </g>
 <defs>
  <clipPath id="p66cd22555a">
   <rect x="57.6" y="41.472" width="357.12" height="266.112"/>
  </clipPath>
 </defs>
</svg>
